# xmcd CD database file
#
# Track frame offsets:
#	150
#	13852
#	22567
#	38182
#	50482
#	64842
#	79850
#	90062
#	102492
#	115422
#	124495
#	133885
#	141942
#	153452
#	166427
#	177007
#	184672
#	200155
#	207465
#	218475
#
# Disc length: 3026 seconds
#
# Revision: 0
# Processed by: cddbd v1.5.1PL2 Copyright (c) Steve Scherf et al.
# Submitted via: CDex 1.51
#
DISCID=1d0bd014
DTITLE=Frank Sinatra - Blue Moods - The Blues According To Sinatra
DYEAR=1995
DGENRE=Jazz
TTITLE0=I'll Be Seeing You
TTITLE1=What A Difference A Day Makes
TTITLE2=Lover Come Back To Me
TTITLE3=I Couldn't Sleep A Wink Last Night
TTITLE4=I Guess I'll Hang My Tears Out To Dry
TTITLE5=I Walk Alone
TTITLE6=I Wonder Who's Kissing Her Now
TTITLE7=No Love, No Nothin'
TTITLE8=It Could Happen To You
TTITLE9=They Didn't Believe Me
TTITLE10=I Should Care
TTITLE11=The Day After Forever
TTITLE12=Why Try To Change Me Now
TTITLE13=My Heart Tells Me
TTITLE14=My Happiness
TTITLE15=Until
TTITLE16=If I Loved You
TTITLE17=I'm In The Mood For Love
TTITLE18=I'll Remember April
TTITLE19=Time After Time
EXTD=YEAR: 1995
EXTT0=
EXTT1=
EXTT2=
EXTT3=
EXTT4=
EXTT5=
EXTT6=
EXTT7=
EXTT8=
EXTT9=
EXTT10=
EXTT11=
EXTT12=
EXTT13=
EXTT14=
EXTT15=
EXTT16=
EXTT17=
EXTT18=
EXTT19=
PLAYORDER=
